<?xml version="1.0" standalone="no"?>
<!DOCTYPE svg PUBLIC "-//W3C//DTD SVG 20010904//EN"
 "http://www.w3.org/TR/2001/REC-SVG-20010904/DTD/svg10.dtd">
<svg version="1.0" xmlns="http://www.w3.org/2000/svg"
 width="512.000000pt" height="512.000000pt" viewBox="0 0 512.000000 512.000000"
 preserveAspectRatio="xMidYMid meet">

<g transform="translate(0.000000,512.000000) scale(0.100000,-0.100000)"
fill="#000000" stroke="none">
<path d="M2330 5110 c-732 -76 -1374 -435 -1813 -1015 -538 -712 -664 -1642
-336 -2480 209 -536 632 -1015 1144 -1297 783 -431 1744 -421 2512 27 598 349
1032 921 1201 1580 227 887 -29 1810 -679 2452 -397 391 -861 626 -1416 714
-146 23 -475 33 -613 19z m186 -317 c-3 -21 -6 -61 -6 -90 l0 -51 -77 -6
c-186 -15 -392 -55 -537 -106 -76 -26 -79 -25 -92 8 -6 15 -21 50 -32 79 l-21
52 107 35 c210 69 410 105 631 115 33 1 34 1 27 -36z m369 11 c120 -17 267
-51 387 -90 l76 -25 -25 -62 c-14 -34 -29 -72 -34 -84 l-8 -22 -73 25 c-105
35 -270 72 -384 85 -55 6 -114 13 -131 15 l-33 5 0 89 0 89 58 -5 c31 -3 107
-12 167 -20z m698 -220 c173 -87 327 -191 476 -323 l74 -66 -63 -57 c-35 -32
-66 -58 -71 -58 -4 0 -31 22 -61 48 -121 109 -293 226 -440 298 -43 21 -78 44
-78 50 0 6 11 36 23 65 13 30 27 62 30 72 4 9 9 17 12 17 3 0 47 -21 98 -46z
m-1934 -39 c17 -41 31 -78 31 -83 0 -4 -26 -20 -57 -36 -120 -58 -291 -171
-406 -270 l-59 -49 -61 62 -62 62 50 46 c65 60 180 145 280 207 82 51 235 136
246 136 3 0 20 -34 38 -75z m1228 -64 c415 -73 768 -256 1064 -552 298 -298
485 -676 550 -1114 20 -130 17 -415 -5 -545 -109 -648 -496 -1170 -1084 -1464
-249 -125 -543 -191 -847 -190 -524 0 -1000 199 -1375 574 -298 298 -486 678
-551 1115 -20 130 -17 415 5 545 109 648 496 1170 1084 1464 187 94 442 163
697 190 88 9 354 -4 462 -23z m-1885 -408 c32 -32 58 -61 58 -65 0 -4 -21 -31
-48 -60 -110 -122 -235 -304 -307 -449 -21 -41 -38 -75 -40 -77 -1 -1 -22 6
-46 17 -24 11 -61 26 -82 35 l-38 15 42 83 c49 98 139 241 212 341 56 75 178
217 186 217 3 0 31 -26 63 -57z m3329 -85 c100 -125 183 -250 250 -381 l50
-97 -23 -9 c-13 -5 -50 -21 -83 -34 l-60 -25 -48 91 c-61 117 -158 262 -236
354 -34 40 -61 76 -61 80 0 10 112 123 121 123 4 0 45 -46 90 -102z m393 -715
c60 -184 97 -377 110 -580 l5 -83 -89 0 c-79 0 -90 2 -90 18 0 136 -52 424
-104 580 l-34 100 82 35 c44 20 82 36 83 36 1 1 17 -47 37 -106z m-4194 47
c41 -17 75 -32 77 -34 2 -1 -6 -29 -18 -62 -11 -32 -33 -111 -48 -174 -25
-101 -34 -155 -57 -347 l-5 -43 -52 0 c-29 0 -68 3 -87 6 l-36 6 8 91 c9 104
32 243 54 332 23 90 77 255 85 255 3 0 39 -14 79 -30z m-45 -887 c13 -184 49
-370 101 -525 14 -44 22 -83 18 -88 -16 -14 -154 -68 -158 -62 -11 21 -68 209
-85 282 -23 102 -47 273 -55 393 l-6 87 89 0 89 0 7 -87z m4347 -28 c-5 -86
-30 -256 -53 -355 -23 -101 -78 -270 -87 -270 -4 0 -41 14 -83 31 l-77 32 20
56 c33 96 76 284 88 387 6 55 14 118 16 142 l5 43 87 -3 87 -3 -3 -60z m-192
-768 c0 -5 -23 -54 -51 -109 -70 -135 -189 -312 -296 -437 l-88 -103 -57 63
c-32 35 -58 67 -58 71 0 4 28 40 63 80 116 135 209 273 287 427 l39 79 81 -31
c44 -18 80 -36 80 -40z m-3929 -29 c53 -106 169 -283 248 -377 33 -40 61 -74
61 -75 0 -1 -29 -30 -63 -64 l-64 -63 -76 93 c-41 51 -104 137 -140 190 -73
110 -172 296 -162 306 5 5 88 44 152 71 2 1 21 -36 44 -81z m599 -711 c115
-88 198 -141 310 -197 47 -23 86 -43 88 -45 3 -2 -57 -157 -63 -163 -5 -5
-185 87 -265 136 -94 58 -246 173 -325 246 l-60 56 63 60 63 61 47 -41 c26
-22 90 -73 142 -113z m2790 -9 c-3 -2 -34 -28 -70 -59 -83 -70 -187 -146 -270
-196 -91 -55 -241 -136 -244 -132 -7 11 -67 162 -64 164 2 1 23 13 48 25 127
63 327 197 425 284 l50 45 65 -64 c35 -35 62 -66 60 -67z m-751 -358 c17 -41
31 -78 31 -81 0 -9 -192 -73 -295 -98 -95 -23 -265 -47 -389 -56 l-89 -6 6 38
c4 21 7 61 7 90 l0 51 78 6 c190 16 389 55 547 109 39 14 71 24 71 23 1 0 16
-35 33 -76z m-1428 45 c41 -14 121 -37 179 -50 92 -21 151 -30 328 -51 l42 -5
0 -89 0 -89 -52 5 c-125 11 -290 38 -383 60 -128 32 -257 74 -253 83 2 4 16
42 33 84 16 42 30 77 31 77 0 0 34 -11 75 -25z"/>
<path d="M2430 3845 c-338 -52 -535 -183 -593 -392 -25 -91 -47 -380 -47 -627
l0 -226 -155 0 -155 0 0 -180 0 -180 155 0 155 0 0 -137 c0 -201 -28 -308 -96
-377 -34 -33 -95 -66 -124 -66 -19 0 -20 -5 -20 -200 l0 -200 1045 0 1045 0 0
201 0 201 -770 -3 c-424 -2 -770 -2 -770 1 0 3 23 23 51 44 103 77 133 172
130 414 l-2 122 351 0 350 0 0 180 0 180 -347 2 -348 3 -3 195 c-3 232 10 410
38 482 28 74 62 105 145 131 62 20 92 22 265 22 162 0 204 -3 247 -18 102 -36
140 -111 151 -299 l5 -98 243 0 244 0 0 119 c0 241 -40 404 -129 520 -59 78
-198 141 -387 176 -121 23 -554 29 -674 10z"/>
</g>
</svg>
